HIERARCHY
ROOT Hips
{
	OFFSET 0.000000 0.000000 0.000000
	CHANNELS 6 Xposition Yposition Zposition Zrotation Yrotation Xrotation 
	JOINT LHipJoint
	{
		OFFSET 0.000000 0.000000 0.000000
		CHANNELS 3 Zrotation Yrotation Xrotation
		JOINT LeftUpLeg
		{
			OFFSET 1.363060 -1.794630 0.839290
			CHANNELS 3 Zrotation Yrotation Xrotation
			JOINT LeftLeg
			{
				OFFSET 2.448110 -6.726130 0.000000
				CHANNELS 3 Zrotation Yrotation Xrotation
				JOINT LeftFoot
				{
					OFFSET 2.562200 -7.039590 0.000000
					CHANNELS 3 Zrotation Yrotation Xrotation
					JOINT LeftToeBase
					{
						OFFSET 0.157640 -0.433110 2.322550
						CHANNELS 3 Zrotation Yrotation Xrotation
						End Site
						{
							OFFSET 0.000000 0.000000 0.000000
						}
					}
				}
			}
		}
	}
	JOINT RHipJoint
	{
		OFFSET 0.000000 0.000000 0.000000
		CHANNELS 3 Zrotation Yrotation Xrotation
		JOINT RightUpLeg
		{
			OFFSET -1.305520 -1.794630 0.839290
			CHANNELS 3 Zrotation Yrotation Xrotation
			JOINT RightLeg
			{
				OFFSET -2.542530 -6.985550 0.000000
				CHANNELS 3 Zrotation Yrotation Xrotation
				JOINT RightFoot
				{
					OFFSET -2.568260 -7.056230 0.000000
					CHANNELS 3 Zrotation Yrotation Xrotation
					JOINT RightToeBase
					{
						OFFSET -0.164730 -0.452590 2.363150
						CHANNELS 3 Zrotation Yrotation Xrotation
						End Site
						{
							OFFSET 0.000000 0.000000 0.000000
						}
					}
				}
			}
		}
	}
	JOINT LowerBack
	{
		OFFSET 0.000000 0.000000 0.000000
		CHANNELS 3 Zrotation Yrotation Xrotation
		JOINT Spine
		{
			OFFSET 0.028270 2.035590 -0.193380
			CHANNELS 3 Zrotation Yrotation Xrotation
			JOINT Spine1
			{
				OFFSET 0.056720 2.048850 -0.042750
				CHANNELS 3 Zrotation Yrotation Xrotation
				JOINT Neck
				{
					OFFSET 0.000000 0.000000 0.000000
					CHANNELS 3 Zrotation Yrotation Xrotation
					JOINT Neck1
					{
						OFFSET -0.054170 1.746240 0.172020
						CHANNELS 3 Zrotation Yrotation Xrotation
						JOINT Head
						{
							OFFSET 0.104070 1.761360 -0.123970
							CHANNELS 3 Zrotation Yrotation Xrotation
							End Site
							{
								OFFSET 0.000000 0.000000 0.000000
							}
						}
					}
				}
				JOINT LeftShoulder
				{
					OFFSET 0.000000 0.000000 0.000000
					CHANNELS 3 Zrotation Yrotation Xrotation
					JOINT LeftArm
					{
						OFFSET 3.362410 1.200890 -0.311210
						CHANNELS 3 Zrotation Yrotation Xrotation
						JOINT LeftForeArm
						{
							OFFSET 4.983000 -0.000000 -0.000000
							CHANNELS 3 Zrotation Yrotation Xrotation
							JOINT LeftHand
							{
								OFFSET 3.483560 -0.000000 -0.000000
								CHANNELS 3 Zrotation Yrotation Xrotation
								JOINT LeftFingerBase
								{
									OFFSET 0.000000 0.000000 0.000000
									CHANNELS 3 Zrotation Yrotation Xrotation
									JOINT LeftHandIndex1
									{
										OFFSET 0.715260 -0.000000 -0.000000
										CHANNELS 3 Zrotation Yrotation Xrotation
										End Site
										{
											OFFSET 0.000000 0.000000 0.000000
										}
									}
								}
								JOINT LThumb
								{
									OFFSET 0.000000 0.000000 0.000000
									CHANNELS 3 Zrotation Yrotation Xrotation
									End Site
									{
										OFFSET 0.000000 0.000000 0.000000
									}
								}
							}
						}
					}
				}
				JOINT RightShoulder
				{
					OFFSET 0.000000 0.000000 0.000000
					CHANNELS 3 Zrotation Yrotation Xrotation
					JOINT RightArm
					{
						OFFSET -3.136600 1.374050 -0.404650
						CHANNELS 3 Zrotation Yrotation Xrotation
						JOINT RightForeArm
						{
							OFFSET -5.241900 -0.000000 -0.000000
							CHANNELS 3 Zrotation Yrotation Xrotation
							JOINT RightHand
							{
								OFFSET -3.444170 -0.000000 -0.000000
								CHANNELS 3 Zrotation Yrotation Xrotation
								JOINT RightFingerBase
								{
									OFFSET 0.000000 0.000000 0.000000
									CHANNELS 3 Zrotation Yrotation Xrotation
									JOINT RightHandIndex1
									{
										OFFSET -0.622530 -0.000000 -0.000000
										CHANNELS 3 Zrotation Yrotation Xrotation
										End Site
										{
											OFFSET 0.000000 0.000000 0.000000
										}
									}
								}
								JOINT RThumb
								{
									OFFSET 0.000000 0.000000 0.000000
									CHANNELS 3 Zrotation Yrotation Xrotation
									End Site
									{
										OFFSET 0.000000 0.000000 0.000000
									}
								}
							}
						}
					}
				}
			}
		}
	}
}
MOTION
Frames: 6
Frame Time: 0.008333
-0.734271 17.213701 0.635621 20.646484 79.265480 31.823767 -9.421477 0.057726 1.703539 -11.290270 -1.588419 -37.949295 -0.782358 1.416601 41.120697 3.021718 16.420057 -9.272643 -0.106900 -0.000001 -9.686700 9.456762 -1.919489 1.965349 10.044923 3.317088 -9.345654 2.500340 0.020959 15.669190 -1.415288 -2.008724 -17.763038 0.728600 -0.000001 -8.990200 -5.099310 0.291179 -4.602107 -1.902379 0.515207 -4.553538 -6.447246 0.347594 -2.648752 7.926299 -0.850753 -5.228866 -3.784181 -0.325855 0.643697 0.000000 0.000000 0.000000 -5.545201 8.113308 3.572795 -62.712106 28.351787 25.743783 -3.921733 -18.417052 -0.006230 -0.365157 3.638605 -0.009909 -0.075169 -0.132483 -0.000000 0.000000 0.000000 0.000000 0.000000 0.000000 0.000000 14.323863 6.977521 -0.721874 80.333426 40.854114 38.007338 1.211959 48.777876 -0.020874 -5.247867 12.923854 -0.623029 0.073052 -0.449971 -0.000000 0.000000 0.000000 0.000000 0.000000 0.000000 0.000000 
-0.573799 17.278133 0.669427 21.952658 79.139865 33.235041 -9.143552 0.107868 1.928945 -11.788074 -1.848539 -37.194716 -1.018966 1.048756 36.253265 2.972559 16.200661 -8.018587 0.323500 0.000000 -9.644900 9.720279 -2.041242 1.977481 9.415357 2.599761 -7.830804 2.465786 0.208781 12.892490 -1.177971 -1.441121 -15.918483 0.501199 0.000001 -10.346800 -5.670143 0.526940 -4.856568 -2.017209 0.797899 -4.600581 -6.355466 0.636819 -2.609322 7.632684 -1.042674 -5.215382 -3.638885 -0.316127 0.652421 0.000000 0.000000 0.000000 -5.535374 9.072843 3.371224 -60.847543 29.951120 27.574155 -3.812018 -20.228855 -0.001930 0.673569 2.548041 0.017212 -0.069981 -0.149681 -0.000000 0.000000 0.000000 0.000000 0.000000 0.000000 0.000000 13.428410 6.947030 -0.854319 79.868273 42.578548 38.600879 1.170305 51.061472 -0.022015 -5.205991 12.172270 -0.583419 0.074030 -0.457212 -0.000000 0.000000 0.000000 0.000000 0.000000 0.000000 0.000000 
-0.412734 17.334525 0.697937 22.635381 78.987082 34.017388 -8.921568 0.169375 2.157562 -12.161641 -1.991091 -36.417488 -1.282756 0.683906 31.344122 2.843218 15.644438 -6.686435 0.749400 0.000000 -9.832799 9.945240 -2.177627 1.974790 8.904397 1.859312 -6.389978 2.437849 0.371028 10.297530 -0.933712 -0.808143 -13.986380 0.302800 -0.000000 -11.964200 -6.115759 0.783728 -5.103418 -2.107122 1.091434 -4.647073 -6.252102 0.936382 -2.559091 7.308680 -1.172244 -5.191849 -3.493448 -0.306364 0.664418 0.000000 0.000000 0.000000 -5.519202 10.018711 3.173641 -59.049124 31.445736 28.837256 -3.732936 -21.836706 0.002081 1.572400 1.632159 0.025439 -0.067070 -0.164572 -0.000000 0.000000 0.000000 0.000000 0.000000 0.000000 0.000000 12.492127 6.963052 -0.965192 79.155167 44.347315 38.958938 1.131002 53.278567 -0.022879 -5.115016 11.452159 -0.540615 0.073744 -0.463062 -0.000000 0.000000 0.000000 0.000000 0.000000 0.000000 0.000000 
-0.251009 17.382670 0.720571 22.674108 78.818174 34.166900 -8.768123 0.225671 2.388910 -12.390321 -2.009003 -35.683336 -1.572354 0.321246 26.481887 2.629361 14.728062 -5.300293 1.131300 0.000000 -10.351599 10.113402 -2.328735 1.966035 8.533406 1.136723 -5.044845 2.424832 0.510268 7.905172 -0.692224 -0.129219 -12.022239 0.146000 -0.000000 -13.675400 -6.423024 1.059500 -5.355026 -2.168156 1.392144 -4.692485 -6.135406 1.242336 -2.488613 6.950825 -1.236997 -5.170485 -3.348275 -0.296439 0.676361 0.000000 0.000000 0.000000 -5.499319 10.981659 2.984975 -57.351867 32.805015 29.535993 -3.692025 -23.226421 0.005380 2.225552 0.886820 0.021069 -0.066798 -0.177105 -0.000000 0.000000 0.000000 0.000000 0.000000 0.000000 0.000000 11.513567 7.025464 -1.058036 78.177066 46.161822 39.080063 1.090452 55.439486 -0.023511 -4.981492 10.812539 -0.498118 0.071925 -0.468308 -0.000000 0.000000 0.000000 0.000000 0.000000 0.000000 0.000000 
-0.089228 17.422601 0.737798 22.217979 78.641434 33.820173 -8.678889 0.265896 2.615053 -12.498650 -1.911707 -35.007812 -1.884297 -0.039165 21.740971 2.334740 13.458097 -3.881911 1.432800 -0.000000 -11.248999 10.230867 -2.489679 1.942018 8.273573 0.396354 -3.795328 2.430929 0.625521 5.738797 -0.452291 0.623004 -10.061180 0.036900 0.000000 -15.590399 -6.612785 1.345545 -5.594511 -2.203196 1.692920 -4.730996 -6.005104 1.547546 -2.392157 6.563476 -1.250160 -5.162391 -3.204360 -0.286270 0.684750 0.000000 0.000000 0.000000 -5.473554 11.972229 2.810680 -55.780483 34.007152 29.704462 -3.692267 -24.394324 0.007614 2.569982 0.313490 0.011299 -0.069184 -0.187224 -0.000000 0.000000 0.000000 0.000000 0.000000 0.000000 0.000000 10.508301 7.117325 -1.134976 76.932497 48.039666 38.979398 1.045410 57.528275 -0.024025 -4.818511 10.292805 -0.459530 0.068357 -0.473763 -0.000000 0.000000 0.000000 0.000000 0.000000 0.000000 0.000000 
0.072476 17.454339 0.750040 21.341836 78.462813 33.057714 -8.649801 0.280895 2.829316 -12.504817 -1.694734 -34.439038 -2.210700 -0.392834 17.211254 1.969332 11.846323 -2.453806 1.623800 0.000000 -12.606600 10.297170 -2.655660 1.910525 8.117451 -0.335240 -2.645959 2.456699 0.721440 3.804275 -0.222138 1.426329 -8.161177 -0.017999 0.000000 -17.580800 -6.694681 1.636346 -5.824224 -2.213585 1.988772 -4.761968 -5.863520 1.846679 -2.270170 6.151746 -1.218828 -5.171976 -3.063152 -0.275920 0.688261 0.000000 0.000000 0.000000 -5.446961 12.974422 2.653485 -54.365182 35.073397 29.304396 -3.737675 -25.340715 0.008449 2.562398 -0.068366 0.002724 -0.074192 -0.194870 -0.000000 0.000000 0.000000 0.000000 0.000000 0.000000 0.000000 9.492713 7.226373 -1.195308 75.409716 49.980300 38.656202 0.992889 59.538026 -0.024581 -4.643744 9.909771 -0.426852 0.062946 -0.480115 -0.000000 0.000000 0.000000 0.000000 0.000000 0.000000 0.000000 
